# xmcd CD database file
#
# Track frame offsets:
#	185
#	10285
#	22075
#	32797
#	43135
#	54037
#	65642
#	77330
#	87555
#	94992
#	105372
#	110180
#	122075
#	137160
#	151440
#	158390
#	169387
#	179630
#
# Disc length: 2512 seconds
#
# Revision: 0
# Processed by: cddbd v1.4PL0 Copyright (c) Steve Scherf et al.
# Submitted via: CDex 1.50
#
DISCID=f009ce12
DTITLE=Art Tatum - Masters of Jazz, Vol. 8
DYEAR=1987
DGENRE=Jazz
TTITLE0=Tiger Rag
TTITLE1=Stay As Sweet As You Are
TTITLE2=Monday In Manhattan
TTITLE3=I Would Do Anything For You
TTITLE4=Boots And Saddle
TTITLE5=After You've Gone
TTITLE6=Dixieland Band
TTITLE7=I Wish I Were Twins
TTITLE8=The Shout
TTITLE9=Rosetta
TTITLE10=Theme For Piano
TTITLE11=In The Middle Of A Kiss
TTITLE12=Devil In The Moon
TTITLE13=Louise
TTITLE14=Night And Day
TTITLE15=Lulu's Back In Town
TTITLE16=Sweet Lorraine
TTITLE17=Tiger Rag
EXTD=YEAR: 1987
EXTT0=
EXTT1=
EXTT2=
EXTT3=
EXTT4=
EXTT5=
EXTT6=
EXTT7=
EXTT8=
EXTT9=
EXTT10=
EXTT11=
EXTT12=
EXTT13=
EXTT14=
EXTT15=
EXTT16=
EXTT17=
PLAYORDER=
